Coordinates
version=1
nRows=24
nColumns=24
inDegrees=yes

Units are S.I. units (second, meters, Newtons, ...)
Angles are in degrees.

endheader
time	pelvis_tilt	pelvis_list	pelvis_rotation	pelvis_tx	pelvis_ty	pelvis_tz	hip_flexion_r	hip_adduction_r	hip_rotation_r	knee_angle_r	ankle_angle_r	subtalar_angle_r	mtp_angle_r	hip_flexion_l	hip_adduction_l	hip_rotation_l	knee_angle_l	ankle_angle_l	subtalar_angle_l	mtp_angle_l	lumbar_extension	lumbar_bending	lumbar_rotation
      1.26666667	      4.35501006	     -3.67092488	     -1.62821462	     -0.00380800	      1.04784106	      0.32657174	    -22.66310876	      8.84748231	     -1.65498652	     -5.87576232	      7.23997375	     -8.75381832	      0.76358022	     18.42384141	     -0.88805107	     -7.46100673	      2.66936826	     10.44617423	      9.72944455	      1.01903749	     -2.35303935	      7.01033334	      2.83033523
      1.27083333	      4.36828272	     -3.63843402	     -1.65829583	      0.00189055	      1.04760989	      0.32659973	    -22.78945819	      8.76949828	     -1.62338891	     -6.28451721	      7.17185534	     -8.72434007	      0.77378153	     18.34467006	     -0.84564539	     -7.37819946	      2.28392544	     10.39428967	      9.71185046	      1.01180471	     -2.29295541	      6.95312388	      2.85525546
      1.27500000	      4.32616144	     -3.56067011	     -1.66504362	      0.00785152	      1.04733101	      0.32658701	    -22.87730910	      8.65363189	     -1.55420886	     -6.66296660	      7.12347627	     -8.71786960	      0.77606422	     18.29578099	     -0.74441466	     -7.30062402	      1.91881523	     10.35757945	      9.71099122	      1.01070786	     -2.27126679	      6.93786937	      2.86187880
      1.27916667	      4.41061138	     -3.49350196	     -1.80150901	      0.01368627	      1.04733238	      0.32663681	    -23.01463885	      8.47761520	     -1.79866978	     -7.18540660	      6.63365062	     -8.51669161	      0.82031711	     18.07531898	     -0.68296430	     -7.37069103	      1.62241634	     10.03777167	      9.46881394	      0.98279863	     -2.29562440	      6.69906696	      2.96014481
      1.28333333	      4.54074565	     -3.38408409	     -1.83331632	      0.01965785	      1.04735384	      0.32658407	    -23.24329785	      8.29634500	     -1.91093583	     -7.62881078	      6.35416785	     -8.26427129	      0.90418678	     17.77737982	     -0.54331586	     -7.19453812	      1.38105623	      9.65475238	      9.18578200	      0.95050702	     -2.32733004	      6.56472522	      3.08760914
      1.28750000	      4.55584919	     -3.36285520	     -1.86704812	      0.02547228	      1.04723884	      0.32658141	    -23.31452319	      8.22217744	     -1.90044895	     -8.15206390	      6.27813078	     -8.25129161	      0.91847813	     17.64314730	     -0.51162185	     -7.11881362	      1.05042125	      9.58192654	      9.13994132	      0.94712247	     -2.28339852	      6.49241757	      3.11152313
      1.29166667	      4.59346327	     -3.23122617	     -1.96968562	      0.03167736	      1.04724954	      0.32652430	    -23.40185733	      7.98048972	     -2.10358598	     -8.68113456	      5.83919677	     -8.04020267	      0.99637827	     17.40135852	     -0.35781714	     -7.12374921	      0.86045602	      9.07512816	      8.79778004	      0.92919675	     -2.32376889	      6.33016250	      3.20896087
      1.29583333	      4.62486808	     -3.21437655	     -2.01589501	      0.03754216	      1.04721888	      0.32652706	    -23.45730357	      7.90070595	     -2.08757151	     -9.26623736	      5.73514088	     -8.01609422	      1.01295284	     17.21214951	     -0.33230317	     -7.01290222	      0.59431884	      8.95942698	      8.76571077	      0.92795773	     -2.24183017	      6.25683526	      3.23673343
      1.30000000	      4.82328469	     -3.04593102	     -2.07458282	      0.04373897	      1.04747495	      0.32633813	    -23.69155341	      7.61427573	     -2.32267568	     -9.82526245	      5.31394944	     -7.55013597	      1.28001926	     16.72590409	     -0.10640438	     -6.61858017	      0.57518785	      8.06052918	      7.85058125	      0.93351503	     -2.43310172	      6.03565154	      3.47947277
      1.30416667	      4.84756278	     -2.95757001	     -2.16620940	      0.04988409	      1.04754249	      0.32627483	    -23.69357206	      7.41857963	     -2.51343285	    -10.48486688	      4.93835987	     -7.44477990	      1.39287828	     16.49963498	      0.00352830	     -6.72470807	      0.38260544	      7.69535379	      7.58682538	      0.94424919	     -2.37303297	      5.93494772	      3.52833639
      1.30833333	      4.85698877	     -2.92787750	     -2.25644746	      0.05587055	      1.04761386	      0.32629724	    -23.65635338	      7.29687826	     -2.53037088	    -11.20135317	      4.78582686	     -7.43800996	      1.41318099	     16.28021572	      0.03900899	     -6.62788022	      0.21140408	      7.54626215	      7.58846343	      0.94697062	     -2.30635547	      5.85974569	      3.54387319
      1.31250000	      4.92102940	     -2.75844618	     -2.37239730	      0.06229212	      1.04782261	      0.32622908	    -23.68890485	      6.99014863	     -2.70303132	    -11.86661097	      4.13658471	     -7.10307329	      1.67032926	     15.91846571	      0.24590684	     -6.48755338	      0.21837900	      6.50006704	      6.92641512	      0.99543917	     -2.28474310	      5.63137701	      3.70613858
      1.31666667	      4.94798697	     -2.73309280	     -2.45669627	      0.06825997	      1.04798080	      0.32622450	    -23.60941043	      6.86600592	     -2.79676881	    -12.68683803	      3.96441865	     -7.11460531	      1.69404587	     15.68391663	      0.28212283	     -6.47243995	      0.04040760	      6.37197295	      6.88571019	      1.00122299	     -2.22651321	      5.56329855	      3.71835514
      1.32083333	      4.99535389	     -2.54639407	     -2.60263537	      0.07475444	      1.04825704	      0.32616692	    -23.56720673	      6.51911652	     -3.00284922	    -13.44438459	      3.18049652	     -6.81097238	      1.93674071	     15.33786981	      0.50545512	     -6.48557999	      0.04292257	      5.34773713	      6.24067340	      1.06355601	     -2.18546468	      5.33798148	      3.85618373
      1.32500000	      5.03442211	     -2.52136911	     -2.68110766	      0.08070641	      1.04849263	      0.32616989	    -23.44643144	      6.39040501	     -3.10862692	    -14.35508885	      2.99727878	     -6.82093191	      1.96368723	     15.09030244	      0.54254535	     -6.45981940	     -0.13423926	      5.21444912	      6.19499059	      1.07187515	     -2.13766547	      5.26010563	      3.86995791
      1.32916667	      5.05844790	     -2.33238128	     -2.83426414	      0.08721840	      1.04881196	      0.32609898	    -23.32055970	      6.02812616	     -3.32543469	    -15.20499497	      2.11614152	     -6.52643623	      2.24870262	     14.76514298	      0.77161935	     -6.43701209	     -0.12228181	      4.12951013	      5.42097130	      1.15912881	     -2.05843673	      5.03880457	      4.01645639
      1.33333333	      5.09146462	     -2.20284636	     -2.94249023	      0.09348205	      1.04913673	      0.32598045	    -23.15382765	      5.74463910	     -3.55530895	    -16.15500997	      1.51462130	     -6.37049538	      2.56852653	     14.47341530	      0.94193165	     -6.36062078	     -0.19818680	      3.48295448	      4.76251879	      1.27304731	     -2.01338812	      4.88943222	      4.11923989
      1.33750000	      5.14638716	     -2.15934043	     -3.01464021	      0.09937115	      1.04949977	      0.32601501	    -22.96099127	      5.58943443	     -3.67319982	    -17.20427578	      1.30899706	     -6.37642077	      2.59996022	     14.22075955	      0.99635239	     -6.32767633	     -0.39918174	      3.36009878	      4.73586094	      1.28452082	     -1.98551454	      4.78632031	      4.13006265
      1.34166667	      5.09297023	     -1.98788169	     -3.12905457	      0.10575171	      1.04979532	      0.32575846	    -22.64536730	      5.23826141	     -3.94851834	    -18.21931395	      0.36643035	     -6.24451264	      3.28069151	     14.00190716	      1.22683849	     -6.10194900	     -0.41785963	      2.17876580	      3.39739520	      1.53348914	     -1.94289325	      4.59127672	      4.30034803
      1.34583333	      5.13829289	     -1.82511670	     -3.22623121	      0.11200373	      1.05022949	      0.32569617	    -22.40858278	      4.91496457	     -4.20852585	    -19.29067742	     -0.32003531	     -6.04296223	      3.44819968	     13.73845662	      1.42177067	     -6.28095028	     -0.59685344	      1.85609755	      3.25845339	      1.59505544	     -1.83298660	      4.39297719	      4.32417027
      1.35000000	      5.11569263	     -1.70066869	     -3.33727224	      0.11808203	      1.05062533	      0.32557866	    -22.05568651	      4.62336609	     -4.35887213	    -20.41541725	     -1.09590969	     -6.08543637	      4.33291914	     13.51887342	      1.57802437	     -5.99931583	     -0.67905648	      1.01910610	      2.35339900	      1.92633792	     -1.77393086	      4.22644976	      4.39167440
      1.35416667	      5.15388365	     -1.51625626	     -3.42010700	      0.12428824	      1.05110552	      0.32548054	    -21.75719232	      4.27103516	     -4.62590725	    -21.55619665	     -1.83592350	     -5.85908635	      4.50513450	     13.28159839	      1.79667642	     -6.19213141	     -0.89562120	      0.75183069	      2.27745604	      1.98822276	     -1.67840903	      3.98277518	      4.41359787
      1.35833333	      5.16466576	     -1.34460692	     -3.52413377	      0.13039474	      1.05159508	      0.32542991	    -21.39651432	      3.92658226	     -4.80153586	    -22.72651465	     -2.71813595	     -5.72633638	      4.72195079	     13.07098144	      1.99006345	     -6.27380185	     -1.09044012	      0.27538039	      2.08228010	      2.06086548	     -1.60703687	      3.73803170	      4.43421300
      1.36250000	      5.17651342	     -1.17201066	     -3.60103863	      0.13641862	      1.05208839	      0.32530413	    -21.00647017	      3.58208222	     -5.00949355	    -23.93532821	     -3.59940162	     -5.66641192	      4.94253003	     12.87800328	      2.19105795	     -6.32722461	     -1.31740991	     -0.15574640	      1.80428363	      2.13334571	     -1.54079055	      3.50063673	      4.45447120
